<?xml version="1.0" encoding="utf-8"?>
<!-- Generator: Adobe Illustrator 16.0.3, SVG Export Plug-In . SVG Version: 6.00 Build 0)  -->
<!DOCTYPE svg PUBLIC "-//W3C//DTD SVG 1.1//EN" "http://www.w3.org/Graphics/SVG/1.1/DTD/svg11.dtd">
<svg version="1.1" id="Layer_1" xmlns="http://www.w3.org/2000/svg" xmlns:xlink="http://www.w3.org/1999/xlink" x="0px" y="0px"
	 width="16px" height="16px" viewBox="0 0 16 16" enable-background="new 0 0 16 16" xml:space="preserve">
<g>
	<path d="M10.929,13.145H5.073c-1.064,0-1.788-0.648-1.788-1.734c0-1.514,0.355-3.837,2.317-3.837c0.208,0,1.086,0.931,2.398,0.931
		s2.19-0.931,2.398-0.931c1.961,0,2.316,2.324,2.316,3.837C12.716,12.496,11.993,13.145,10.929,13.145z M8.001,8.001
		c-1.42,0-2.572-1.152-2.572-2.572s1.152-2.572,2.572-2.572s2.572,1.152,2.572,2.572S9.421,8.001,8.001,8.001z"/>
</g>
</svg>
