/* XPM */
static char *zulip_desktop_32x32[] = {
/* columns rows colors chars-per-pixel */
"32 32 65 1 ",
"  c #19492B",
". c #1B4C2D",
"X c #1B4F2F",
"o c #1B4F30",
"O c #1C5232",
"+ c #1E5232",
"@ c #1E5332",
"# c #1E5533",
"$ c #1F5533",
"% c #1E5634",
"& c #1F5734",
"* c #1F5835",
"= c #1F5936",
"- c #1F5A36",
"; c #1F5C38",
": c #205D38",
"> c #205D39",
", c #205F39",
"< c #20603A",
"1 c #21613A",
"2 c #21633C",
"3 c #21643D",
"4 c #21653D",
"5 c #21673F",
"6 c #22683F",
"7 c #236B40",
"8 c #236B41",
"9 c #236C41",
"0 c #236C42",
"q c #236F43",
"w c #246F43",
"e c #237245",
"r c #247245",
"t c #247346",
"y c #237647",
"u c #257446",
"i c #237949",
"p c #237A4A",
"a c #237D4B",
"s c #237E4C",
"d c #257D4C",
"f c #247E4C",
"g c #287C4C",
"h c #37764E",
"j c #1E9459",
"k c #22804E",
"l c #25814E",
"z c #238550",
"x c #238751",
"c c #298350",
"v c #238851",
"b c #238952",
"n c #218C54",
"m c #218E55",
"M c #218F56",
"N c #238E56",
"B c #2B8B55",
"V c #209056",
"C c #219459",
"Z c #23945A",
"A c #2F935C",
"S c #ABD5C8",
"D c #ADD6CA",
"F c #AFD8CB",
"G c None",
/* pixels */
"GGGGGGGGGGGGFFFFFFFFGGGGGGGGGGGG",
"GGGGGGGGGFFFFFFFFFFFFFFGGGGGGGGG",
"GGGGGGGFFFFFFFFFFFFFFFFFFGGGGGGG",
"GGGGGGFFFFFFFFFFFFFFFFFFFFGGGGGG",
"GGGGGFFFFFFFFFFFFFFFFFFFFFFGGGGG",
"GGGGFFFFFFFFFFFFFFFFFFFFFFFFGGGG",
"GGGFFFFFFFFFFFFFFFFFFFFFFFFFFGGG",
"GGFFFFFFFFFFFFFDFFFFFFFFFFFFFFGG",
"GGFFFFFFFNNxkpt83<*++CFFFFFFFFGG",
"GFFFFFFFFFNxkptq3;*+NjCFFFFFFFFG",
"GFFFFFFFFDFxkptq3<+bnVCCFFFFFFFG",
"GFFFFFFFFFFFFFFFFFkzbnADFFFFFFFG",
"FFFFFFFFFFFFFFFFFyklzBFFFFFFFFFF",
"FFFFFFFFFFFFFFFFeyaacFFFFFFFFFFF",
"FFFFFFFFFFFFFFF6wwygFFFFFFFFFFFF",
"FFFFFFFFFFFFFF356wuFFFFFFFFFFFFF",
"FFFFFFFFFFFFF,1366FFFFFFFFFFFFFF",
"FFFFFFFFFFFF&--15FFFFFFFFFFFFFFF",
"FFFFFFFFFFDX&&-,FFFFFFFFFFFFFFFF",
"FFFFFFFFFF .X+*FFFFFFFFFFFFFFFFF",
"GFFFFFFFF XX+*FFFFFFFFFFFFFFFFFG",
"GFFFFFFFdddiyrq5541;&FFFFFFFFFFG",
"GFFFFFFFFddpyrw7541-*&FFFFFFFFFG",
"GGFFFFFFFDhpyrq7541-*%&DFFFFFFGG",
"GGFFFFFFFFFFFFFFFFFFFFFFFFFFFFGG",
"GGGFFFFFFFFFFFFFFFFFFFFFFFFFFGGG",
"GGGGFFFFFFFFFFFFFFFFFFFFFFFFGGGG",
"GGGGGFFFFFFFFFFFFFFFFFFFFFFGGGGG",
"GGGGGGFFFFFFFFFFFFFFFFFFFFGGGGGG",
"GGGGGGGFFFFFFFFFFFFFFFFFFGGGGGGG",
"GGGGGGGGGFFFFFFFFFFFFFFGGGGGGGGG",
"GGGGGGGGGGGGFFFFFFFFGGGGGGGGGGGG"
};
